HIERARCHY
ROOT root
{
	OFFSET 0.000000 0.000000 0.000000
	CHANNELS 6 Xposition Yposition Zposition Zrotation Yrotation Xrotation
	JOINT lhip
	{
		OFFSET 0.058581 -0.082280 -0.017664
		CHANNELS 3 Zrotation Yrotation Xrotation
		JOINT lknee
		{
			OFFSET 0.043451 -0.386469 0.008037
			CHANNELS 3 Zrotation Yrotation Xrotation
			JOINT lankle
			{
				OFFSET -0.014790 -0.426874 -0.037428
				CHANNELS 3 Zrotation Yrotation Xrotation
				JOINT ltoe
				{
					OFFSET 0.041054 -0.060286 0.122042
					CHANNELS 3 Zrotation Yrotation Xrotation
					End Site
					{
						OFFSET 0.000000 0.000000 0.000000
					}
				}
			}
		}
	}
	JOINT rhip
	{
		OFFSET -0.060310 -0.090513 -0.013543
		CHANNELS 3 Zrotation Yrotation Xrotation
		JOINT rknee
		{
			OFFSET -0.043257 -0.383688 -0.004843
			CHANNELS 3 Zrotation Yrotation Xrotation
			JOINT rankle
			{
				OFFSET 0.019056 -0.420046 -0.034562
				CHANNELS 3 Zrotation Yrotation Xrotation
				JOINT rtoe
				{
					OFFSET -0.034840 -0.062106 0.130323
					CHANNELS 3 Zrotation Yrotation Xrotation
					End Site
					{
						OFFSET 0.000000 0.000000 0.000000
					}
				}
			}
		}
	}
	JOINT lowerback
	{
		OFFSET 0.004439 0.124404 -0.038385
		CHANNELS 3 Zrotation Yrotation Xrotation
		JOINT upperback
		{
			OFFSET 0.004488 0.137956 0.026820
			CHANNELS 3 Zrotation Yrotation Xrotation
			JOINT chest
			{
				OFFSET -0.002265 0.056032 0.002855
				CHANNELS 3 Zrotation Yrotation Xrotation
				JOINT lowerneck
				{
					OFFSET -0.013390 0.211636 -0.033468
					CHANNELS 3 Zrotation Yrotation Xrotation
					JOINT upperneck
					{
						OFFSET 0.010113 0.088937 0.050410
						CHANNELS 3 Zrotation Yrotation Xrotation
						End Site
						{
							OFFSET 0.000000 0.000000 0.000000
						}
					}
				}
				JOINT lclavicle
				{
					OFFSET 0.071702 0.114000 -0.018898
					CHANNELS 3 Zrotation Yrotation Xrotation
					JOINT lshoulder
					{
						OFFSET 0.122921 0.045205 -0.019046
						CHANNELS 3 Zrotation Yrotation Xrotation
						JOINT lelbow
						{
							OFFSET 0.255332 -0.015649 -0.022946
							CHANNELS 3 Zrotation Yrotation Xrotation
							JOINT lwrist
							{
								OFFSET 0.265709 0.012698 -0.007375
								CHANNELS 3 Zrotation Yrotation Xrotation
								End Site
								{
									OFFSET 0.000000 0.000000 0.000000
								}
							}
						}
					}
				}
				JOINT rclavicle
				{
					OFFSET -0.082954 0.112472 -0.023707
					CHANNELS 3 Zrotation Yrotation Xrotation
					JOINT rshoulder
					{
						OFFSET -0.113228 0.046853 -0.008472
						CHANNELS 3 Zrotation Yrotation Xrotation
						JOINT relbow
						{
							OFFSET -0.260127 -0.014369 -0.031269
							CHANNELS 3 Zrotation Yrotation Xrotation
							JOINT rwrist
							{
								OFFSET -0.269108 0.006794 -0.006027
								CHANNELS 3 Zrotation Yrotation Xrotation
								End Site
								{
									OFFSET 0.000000 0.000000 0.000000
								}
							}
						}
					}
				}
			}
		}
	}
}
MOTION
Frames: 10
Frame Time: 0.033333
0.525224 0.202605 0.993069 90.974125 3.147749 98.609781 5.959764 4.696988 -4.341711 3.988960 -1.807486 -8.587229 -1.890560 11.515622 -2.088883 0.000000 -0.000000 0.000000 -2.413583 -2.663112 -6.943692 -1.759478 1.354186 -0.338342 5.642689 -7.632509 -3.644835 0.000000 -0.000000 0.000000 0.739853 1.254105 -1.445484 3.004914 -2.803387 -3.669200 -0.873753 1.347024 -4.350046 0.035134 -10.992602 7.353808 5.735181 -10.925646 -4.201722 -17.789711 12.095221 -7.608674 -64.027575 -1.300914 24.255447 7.619768 -4.663289 8.189131 -10.149702 -8.711186 9.701844 18.958175 -4.985021 -4.909941 57.602593 4.961393 15.221044 -7.093874 5.140058 -1.756697 5.646358 3.200559 0.022923 
0.525307 0.202577 0.992945 90.988923 3.171003 98.520713 5.998529 4.687064 -4.213168 3.990689 -1.857439 -8.633782 -1.870410 11.559386 -2.084035 0.000000 -0.000000 0.000000 -2.379049 -2.717204 -6.822786 -1.771521 1.418747 -0.379241 5.710547 -7.647535 -3.645093 0.000000 -0.000000 0.000000 0.824166 1.229460 -1.218853 2.957648 -2.769562 -3.997923 -0.847274 1.358364 -4.148910 0.056643 -11.057524 7.166704 5.619262 -10.952608 -4.004999 -17.791035 11.997764 -7.498205 -64.012153 -1.298225 24.100985 7.595052 -4.726724 8.393687 -10.084513 -8.735818 9.516270 19.025998 -4.931998 -4.847786 57.507315 4.966443 15.122261 -7.041921 5.160279 -1.689617 5.632608 3.282564 0.035841 
0.525302 0.202600 0.992804 91.023725 3.230934 98.365233 6.082901 4.659139 -4.065830 3.974313 -1.952954 -8.615000 -1.841999 11.622025 -2.067879 0.000000 -0.000000 0.000000 -2.302864 -2.779050 -6.611914 -1.783494 1.522089 -0.457228 5.761422 -7.699524 -3.671608 0.000000 -0.000000 0.000000 0.990861 1.164988 -0.749251 2.868013 -2.716658 -4.531182 -0.791285 1.455882 -3.881730 0.098414 -11.285864 6.841874 5.414915 -10.951669 -3.658915 -17.840833 11.796352 -7.324463 -64.036548 -1.312948 23.956246 7.551325 -4.911610 8.740322 -9.767762 -8.708475 9.159355 19.084410 -4.760877 -4.706509 57.387564 5.027749 14.995227 -6.942271 5.030694 -1.822883 5.574243 3.350106 -0.169952 
0.526711 0.202062 0.992565 91.206966 3.245403 98.784822 6.129712 4.548503 -4.395383 3.939949 -2.124633 -8.783809 -1.911112 11.819552 -2.105305 0.000000 -0.000000 0.000000 -2.079861 -2.601790 -6.687875 -1.943793 1.601815 -0.984699 5.540625 -7.995704 -3.878666 0.000000 -0.000000 0.000000 0.738787 0.919076 -1.589846 2.757120 -2.690897 -3.866988 -0.507627 1.832671 -4.418403 0.179824 -11.732345 7.201898 5.632250 -11.033899 -3.512945 -17.600474 11.231334 -6.675387 -64.444989 -1.356691 24.091222 7.844547 -4.947596 8.387270 -9.734207 -8.728770 8.880852 18.727798 -2.546943 -3.313314 57.778381 4.318583 15.910109 -7.024779 4.130325 -3.927007 5.210159 3.714876 -2.226049 
0.526789 0.202071 0.992459 91.208969 3.251169 98.804332 6.130049 4.546086 -4.420960 3.940857 -2.117259 -8.776693 -1.902403 11.793951 -2.124852 0.000000 -0.000000 0.000000 -2.065398 -2.603616 -6.711874 -1.951528 1.576752 -0.977946 5.510086 -7.974931 -3.875012 0.000000 -0.000000 0.000000 0.758101 0.931209 -1.586997 2.764376 -2.698187 -3.852150 -0.511137 1.824146 -4.458489 0.186692 -11.696712 7.240758 5.650863 -11.036586 -3.509441 -17.617360 11.219424 -6.693386 -64.502352 -1.368651 24.120809 7.852474 -4.898606 8.338577 -9.677960 -8.725035 8.850576 18.752761 -2.508883 -3.314345 57.769327 4.329693 15.934393 -6.997859 4.046504 -4.003107 5.162025 3.731309 -2.239420 
0.526910 0.202153 0.992168 91.218813 3.251402 98.837657 6.120024 4.528315 -4.463581 3.960504 -2.141570 -8.769108 -1.907676 11.775876 -2.116046 0.000000 -0.000000 0.000000 -2.041422 -2.581273 -6.740480 -1.998798 1.604366 -1.015591 5.477637 -8.013979 -3.877634 0.000000 -0.000000 0.000000 0.774833 0.957909 -1.536085 2.790621 -2.705108 -3.944197 -0.470312 1.812492 -4.413926 0.149501 -11.683882 7.239629 5.667684 -11.014218 -3.519850 -17.618181 11.147175 -6.751323 -64.807133 -1.510567 24.268348 7.985865 -4.599654 8.591798 -9.711546 -8.547898 8.566243 18.777275 -2.491187 -3.357025 57.800821 4.345090 16.037567 -7.088519 3.948400 -4.041238 5.139876 3.703553 -2.450088 
0.527112 0.202139 0.991856 91.231394 3.256496 98.836949 6.136721 4.542528 -4.443372 3.958818 -2.167588 -8.808055 -1.913055 11.756645 -2.125172 0.000000 -0.000000 0.000000 -2.014822 -2.606596 -6.717170 -2.026408 1.643553 -1.067132 5.461526 -8.035942 -3.867402 0.000000 -0.000000 0.000000 0.826301 0.962721 -1.481662 2.814387 -2.719861 -4.008470 -0.473241 1.792680 -4.367044 0.133872 -11.775155 7.229928 5.625953 -11.015159 -3.505793 -17.741414 11.131039 -6.828241 -64.812296 -1.578516 24.347171 7.964262 -4.544691 8.760806 -9.582992 -8.296955 8.335792 18.786264 -2.666688 -3.466466 57.774874 4.427185 16.018285 -6.961292 3.990734 -3.911352 5.081687 3.565767 -2.385524 
0.527284 0.202211 0.991567 91.247260 3.250073 98.852733 6.143294 4.548700 -4.436198 3.940951 -2.206573 -8.836645 -1.906961 11.738068 -2.159855 0.000000 -0.000000 0.000000 -2.033581 -2.618190 -6.708129 -2.011791 1.636773 -1.117336 5.438802 -8.034008 -3.859729 0.000000 -0.000000 0.000000 0.843754 0.954138 -1.447781 2.822724 -2.716192 -4.059613 -0.475940 1.780600 -4.351267 0.165192 -11.812283 7.158740 5.645831 -11.073233 -3.484887 -17.801390 11.124977 -6.850434 -64.828123 -1.629814 24.326573 7.991583 -4.518022 8.700416 -9.556845 -8.256877 8.263620 18.781801 -2.796175 -3.517127 57.811223 4.504882 15.925865 -6.898823 3.969877 -3.877617 5.078421 3.521334 -2.307993 
0.527498 0.202192 0.991420 91.274637 3.246284 98.846067 6.142794 4.531094 -4.399068 3.919096 -2.192023 -8.889742 -1.865214 11.729751 -2.161428 0.000000 -0.000000 0.000000 -2.032763 -2.626079 -6.660648 -2.024224 1.613742 -1.168315 5.451653 -8.040181 -3.845870 0.000000 -0.000000 0.000000 0.838183 0.936226 -1.385033 2.810019 -2.744357 -4.125578 -0.434640 1.786884 -4.375464 0.174913 -11.814628 7.128492 5.667427 -11.075696 -3.420350 -17.797576 11.097142 -6.740495 -64.872478 -1.680385 24.288068 8.066783 -4.547555 8.732181 -9.620833 -8.266088 8.188272 18.798046 -2.627918 -3.399437 57.847048 4.425783 16.082992 -7.059154 3.928052 -3.936434 5.108498 3.516880 -2.616653 
0.527620 0.202180 0.991327 91.272261 3.251150 98.841846 6.145676 4.511984 -4.374432 3.935380 -2.191706 -8.903664 -1.849756 11.712869 -2.167925 0.000000 -0.000000 0.000000 -2.027864 -2.638795 -6.657512 -2.026167 1.611894 -1.148350 5.462114 -8.022763 -3.856227 0.000000 -0.000000 0.000000 0.851503 0.950604 -1.370036 2.811746 -2.757865 -4.145702 -0.437827 1.772447 -4.364026 0.166845 -11.809237 7.073889 5.658902 -11.081705 -3.367133 -17.820211 11.102450 -6.755559 -64.863631 -1.698309 24.275367 8.108107 -4.547861 8.735814 -9.621937 -8.298931 8.240269 18.851558 -2.609731 -3.380017 57.823378 4.426892 16.079927 -7.087586 3.906633 -3.961011 5.073514 3.535682 -2.561543 
